<?xml version="1.0" standalone="no"?>
<!DOCTYPE svg PUBLIC "-//W3C//DTD SVG 20010904//EN"
 "http://www.w3.org/TR/2001/REC-SVG-20010904/DTD/svg10.dtd">
<svg version="1.0" xmlns="http://www.w3.org/2000/svg"
 width="148.000000pt" height="148.000000pt" viewBox="0 0 148.000000 148.000000"
 preserveAspectRatio="xMidYMid meet">
<metadata>
Created by potrace 1.14, written by Peter Selinger 2001-2017
</metadata>
<g transform="translate(0.000000,148.000000) scale(0.100000,-0.100000)"
fill="#000000" stroke="none">
<path d="M742 1353 c-13 -3 -38 -19 -56 -38 -99 -98 -12 -247 128 -221 50 10
96 65 96 116 0 50 23 64 97 58 93 -8 133 -67 133 -197 0 -122 -37 -229 -121
-352 -79 -117 -180 -198 -277 -223 l-47 -13 35 -21 c58 -36 176 -42 240 -12
81 37 212 320 240 521 22 151 -23 285 -110 329 -41 21 -144 28 -154 11 -12
-19 -55 -18 -73 2 -19 21 -74 48 -95 46 -7 -1 -23 -4 -36 -6z"/>
<path d="M615 1066 c-176 -247 -248 -432 -249 -636 -1 -93 2 -111 25 -161 16
-34 42 -68 65 -85 33 -26 46 -29 109 -29 62 0 81 5 146 37 44 22 104 64 148
105 l75 68 -105 6 c-78 4 -114 11 -144 26 -94 49 -139 134 -139 263 0 103 19
173 81 298 44 89 45 94 27 107 -24 18 -27 18 -39 1z"/>
</g>
</svg>
